<svg xmlns="http://www.w3.org/2000/svg" viewBox="0 0 108 109.54"><defs><style>.cls-1{fill:#f1ce95;}.cls-2{fill:#82c5be;}</style></defs><g id="Layer_2" data-name="Layer 2"><g id="Layer_1-2" data-name="Layer 1"><path class="cls-1" d="M0,99.42H.57a.31.31,0,0,1,.17,0,.34.34,0,0,1,.09.14l3.41,8.3a5.05,5.05,0,0,1,.22.69,3.48,3.48,0,0,1,.21-.69l3.4-8.3a.26.26,0,0,1,.1-.13.23.23,0,0,1,.16-.06H8.9l-4.13,10H4.13Z"/><path class="cls-1" d="M17.35,109.42h-.56a.25.25,0,0,1-.16,0,.28.28,0,0,1-.1-.14l-1.18-2.91H10.43l-1.17,2.91a.33.33,0,0,1-.1.14.31.31,0,0,1-.17,0H8.44l4.09-10h.72Zm-6.7-3.63h4.48l-2-5.06-.1-.27c0-.1-.06-.21-.1-.32a3,3,0,0,1-.1.32c0,.1-.06.2-.09.28Z"/><path class="cls-1" d="M21.06,105.29v4.13h-.73v-4.13l-3.7-5.87h.63a.25.25,0,0,1,.16,0l.12.13,2.86,4.6a3.27,3.27,0,0,1,.17.31l.13.31c0-.1.08-.2.12-.31l.17-.31,2.86-4.6a.32.32,0,0,1,.11-.12.21.21,0,0,1,.16,0h.63Z"/><path class="cls-1" d="M30.11,108.9a3.13,3.13,0,0,0,1.29-.25,2.82,2.82,0,0,0,1-.69,3.2,3.2,0,0,0,.6-1,4,4,0,0,0,.21-1.31V99.42h.72v6.18a4.58,4.58,0,0,1-.26,1.55,3.93,3.93,0,0,1-.75,1.25,3.42,3.42,0,0,1-1.2.84,4.31,4.31,0,0,1-3.16,0,3.3,3.3,0,0,1-1.19-.84,3.78,3.78,0,0,1-.76-1.25,4.58,4.58,0,0,1-.26-1.55V99.42h.73v6.18a3.94,3.94,0,0,0,.21,1.3,3.2,3.2,0,0,0,.6,1,2.71,2.71,0,0,0,1,.7A3.13,3.13,0,0,0,30.11,108.9Z"/><path class="cls-2" d="M38.15,99.42h.6a.24.24,0,0,1,.26.19l2.53,8.22c0,.09.05.2.07.3s0,.23.07.34c0-.11,0-.23.07-.34a2.63,2.63,0,0,1,.08-.3l2.83-8.22a.26.26,0,0,1,.1-.13.25.25,0,0,1,.17-.06h.2a.28.28,0,0,1,.16,0,.36.36,0,0,1,.1.14l2.83,8.22a2.17,2.17,0,0,1,.08.3,2.66,2.66,0,0,1,.08.33l.06-.33a2.21,2.21,0,0,1,.07-.3L51,99.61a.2.2,0,0,1,.09-.13.28.28,0,0,1,.18-.06h.55l-3.15,10h-.65l-3-8.68a3.1,3.1,0,0,1-.1-.36,3.1,3.1,0,0,1-.1.36l-3,8.68H41.3Z"/><path class="cls-2" d="M59.46,99.42v.6H54.2v4h4.38v.59H54.2v4.17h5.26v.6h-6v-10Z"/><path class="cls-2" d="M62.54,108.81h4.75v.61H61.82v-10h.72Z"/><path class="cls-2" d="M69.77,108.81h4.75v.61H69.05v-10h.72Z"/><path class="cls-2" d="M76.79,99.44a.4.4,0,0,1,.12.11l6.48,8.67a2.88,2.88,0,0,1,0-.41V99.42H84v10h-.35a.33.33,0,0,1-.27-.14l-6.5-8.68a2.75,2.75,0,0,1,0,.4v8.42h-.63v-10h.36Z"/><path class="cls-2" d="M93,99.42v.6H87.7v4h4.38v.59H87.7v4.17H93v.6H87v-10Z"/><path class="cls-2" d="M100.17,100.63a.2.2,0,0,1-.18.13.38.38,0,0,1-.24-.14,4.79,4.79,0,0,0-.4-.29,3.29,3.29,0,0,0-.62-.29,2.69,2.69,0,0,0-.91-.13,2.86,2.86,0,0,0-1,.15,2.18,2.18,0,0,0-.69.43,1.63,1.63,0,0,0-.42.62,1.85,1.85,0,0,0-.15.74,1.54,1.54,0,0,0,.21.84,2.1,2.1,0,0,0,.58.57,4,4,0,0,0,.8.39l.92.31c.32.11.63.22.93.35a3.37,3.37,0,0,1,.8.47,2.39,2.39,0,0,1,.57.69,2.28,2.28,0,0,1,.21,1,3.35,3.35,0,0,1-.21,1.19,2.72,2.72,0,0,1-.63,1,2.94,2.94,0,0,1-1,.65,3.62,3.62,0,0,1-1.36.24,3.71,3.71,0,0,1-1.7-.36,3.88,3.88,0,0,1-1.25-1l.2-.31a.22.22,0,0,1,.19-.11.32.32,0,0,1,.17.08l.24.21a3.67,3.67,0,0,0,.34.27,2.23,2.23,0,0,0,.46.27,3.48,3.48,0,0,0,.6.21,3.57,3.57,0,0,0,.77.08,2.91,2.91,0,0,0,1.06-.18,2.25,2.25,0,0,0,.79-.49,2,2,0,0,0,.49-.74,2.3,2.3,0,0,0,.17-.91,1.69,1.69,0,0,0-.21-.88,2.06,2.06,0,0,0-.57-.57,3.78,3.78,0,0,0-.81-.38l-.92-.31c-.32-.1-.62-.21-.92-.33a3.24,3.24,0,0,1-.81-.47,2.35,2.35,0,0,1-.57-.71,2.7,2.7,0,0,1,0-2,2.3,2.3,0,0,1,.56-.83,2.77,2.77,0,0,1,.91-.57,3.37,3.37,0,0,1,1.23-.21,3.84,3.84,0,0,1,1.4.24,3.46,3.46,0,0,1,1.13.76Z"/><path class="cls-2" d="M107.56,100.63a.23.23,0,0,1-.19.13.39.39,0,0,1-.23-.14,4.79,4.79,0,0,0-.4-.29,3.62,3.62,0,0,0-.62-.29,2.72,2.72,0,0,0-.92-.13,2.85,2.85,0,0,0-1,.15,2,2,0,0,0-.69.43,1.77,1.77,0,0,0-.43.62,1.84,1.84,0,0,0-.14.74,1.54,1.54,0,0,0,.21.84,2.21,2.21,0,0,0,.57.57,4.57,4.57,0,0,0,.8.39c.3.11.61.21.93.31s.62.22.92.35a3.24,3.24,0,0,1,.81.47,2.21,2.21,0,0,1,.56.69,2.15,2.15,0,0,1,.22,1,3.15,3.15,0,0,1-.22,1.19,2.69,2.69,0,0,1-.62,1,3,3,0,0,1-1,.65,3.54,3.54,0,0,1-1.35.24,3.71,3.71,0,0,1-1.7-.36,3.88,3.88,0,0,1-1.25-1l.19-.31a.24.24,0,0,1,.2-.11.3.3,0,0,1,.16.08l.24.21c.1.09.21.17.34.27a2.63,2.63,0,0,0,.47.27,2.95,2.95,0,0,0,1.37.29,3,3,0,0,0,1.06-.18,2.25,2.25,0,0,0,.79-.49,2,2,0,0,0,.49-.74,2.49,2.49,0,0,0,.17-.91,1.69,1.69,0,0,0-.21-.88,2,2,0,0,0-.58-.57,3.49,3.49,0,0,0-.8-.38l-.92-.31q-.48-.15-.93-.33a3.18,3.18,0,0,1-.8-.47,2.08,2.08,0,0,1-.57-.71,2.46,2.46,0,0,1-.21-1.07,2.65,2.65,0,0,1,.18-1,2.59,2.59,0,0,1,.56-.83,2.88,2.88,0,0,1,.91-.57,3.43,3.43,0,0,1,1.24-.21,3.88,3.88,0,0,1,1.4.24,3.32,3.32,0,0,1,1.12.76Z"/><path class="cls-2" d="M90.49,18.67A45,45,0,1,0,80.33,81.49,45,45,0,0,0,90.49,18.67ZM81.55,48.82a4.89,4.89,0,0,0,1,.29,5.69,5.69,0,0,0,6-3.61l.06-.19A12.9,12.9,0,0,1,91.24,48,18.4,18.4,0,0,1,94,55.71h0a18.45,18.45,0,0,1-6.27,5.35,13.2,13.2,0,0,1-3.56,1c0-.06,0-.14.06-.21a5.7,5.7,0,0,0-3.43-6.14,5.09,5.09,0,0,0-1-.26c-2.06-.43-4,.34-5.89,1,.38,2,.66,4,2.07,5.61a5.15,5.15,0,0,0,.73.75,5.73,5.73,0,0,0,7-.1l.13-.15a12.37,12.37,0,0,1,.93,3.58,18.49,18.49,0,0,1-1.51,8.1h0a18.47,18.47,0,0,1-8.1,1.5,13,13,0,0,1-3.58-.92.93.93,0,0,0,.14-.14,5.67,5.67,0,0,0,.11-7,4.69,4.69,0,0,0-.75-.73c-1.57-1.41-5.61-2.07-5.61-2.07-.67,1.93-1.45,3.83-1,5.89a4.78,4.78,0,0,0,.26,1,5.71,5.71,0,0,0,6.15,3.43l.19,0a12.56,12.56,0,0,1-1,3.55A18.6,18.6,0,0,1,64.71,85h0A18.4,18.4,0,0,1,57,82.24a13.43,13.43,0,0,1-2.62-2.6l.17,0a5.69,5.69,0,0,0,3.61-6,4.89,4.89,0,0,0-.29-1c-.66-2-2.28-3.26-3.82-4.6-1.55,1.34-3.17,2.59-3.82,4.6a4.89,4.89,0,0,0-.29,1,5.69,5.69,0,0,0,3.61,6,1.39,1.39,0,0,1,.19.06,12.9,12.9,0,0,1-2.64,2.58A18.4,18.4,0,0,1,43.29,85h0a18.68,18.68,0,0,1-5.35-6.27,14,14,0,0,1-1-3.56l.19.06a5.71,5.71,0,0,0,6.15-3.43,5.42,5.42,0,0,0,.25-1c.44-2.06-.33-4-1-5.89-2,.38-4,.66-5.6,2.07a4,4,0,0,0-.76.73,5.67,5.67,0,0,0,.11,7,.93.93,0,0,0,.14.14,12.35,12.35,0,0,1-3.58.92,18.45,18.45,0,0,1-8.1-1.5h0a18.64,18.64,0,0,1-1.51-8.1,13.37,13.37,0,0,1,1-3.55l.11.12a5.73,5.73,0,0,0,7,.1,5.15,5.15,0,0,0,.73-.75c1.41-1.58,1.69-3.61,2.07-5.61-1.93-.68-3.83-1.45-5.89-1a5.27,5.27,0,0,0-1,.26,5.68,5.68,0,0,0-3.42,6.14,1.42,1.42,0,0,0,0,.2,12.25,12.25,0,0,1-3.55-1A18.45,18.45,0,0,1,14,55.71h0A18.4,18.4,0,0,1,16.76,48a12.28,12.28,0,0,1,2.6-2.59,1,1,0,0,0,0,.14,5.69,5.69,0,0,0,6,3.61,5.07,5.07,0,0,0,1-.29c2-.65,3.26-2.27,4.59-3.82,0,0-2.59-3.17-4.59-3.82a5.07,5.07,0,0,0-1-.29,5.69,5.69,0,0,0-6,3.61l-.06.19a12.9,12.9,0,0,1-2.58-2.64A18.4,18.4,0,0,1,14,34.29h0a18.68,18.68,0,0,1,6.27-5.35,12.56,12.56,0,0,1,3.55-1c0,.07,0,.13,0,.2a5.66,5.66,0,0,0,3.42,6.13,4.63,4.63,0,0,0,1,.26c2.06.44,4-.34,5.89-1-.38-2-.66-4-2.07-5.6a4,4,0,0,0-.73-.76,5.7,5.7,0,0,0-7,.1,1.85,1.85,0,0,1-.14.14,12.87,12.87,0,0,1-.92-3.57,18.61,18.61,0,0,1,1.51-8.1,18.35,18.35,0,0,1,8.1-1.51,13.44,13.44,0,0,1,3.59.91l-.15.15a5.69,5.69,0,0,0-.11,7,4,4,0,0,0,.76.73c1.57,1.41,3.59,1.68,5.6,2.07.68-1.93,1.45-3.83,1-5.89a5.24,5.24,0,0,0-.25-1,5.71,5.71,0,0,0-6.15-3.43l-.19.05a12.9,12.9,0,0,1,1-3.55A18.6,18.6,0,0,1,43.29,5a18.4,18.4,0,0,1,7.76,2.75,12.65,12.65,0,0,1,2.64,2.58l-.19.06a5.7,5.7,0,0,0-3.61,6,5.07,5.07,0,0,0,.29,1c.65,2,2.27,3.26,3.82,4.59,1.54-1.33,3.16-2.59,3.82-4.59a5.07,5.07,0,0,0,.29-1,5.69,5.69,0,0,0-3.61-6l-.19-.06A12.41,12.41,0,0,1,57,7.76,18.4,18.4,0,0,1,64.71,5a18.6,18.6,0,0,1,5.36,6.27,12.56,12.56,0,0,1,1,3.55l-.19-.05a5.71,5.71,0,0,0-6.15,3.43,4.63,4.63,0,0,0-.26,1c-.43,2.06.35,4,1,5.89,2-.39,4-.66,5.61-2.07a4.69,4.69,0,0,0,.75-.73,5.69,5.69,0,0,0-.11-7l-.12-.13a12.41,12.41,0,0,1,3.56-.93,18.35,18.35,0,0,1,8.1,1.51,18.47,18.47,0,0,1,1.51,8.1,12.23,12.23,0,0,1-.93,3.57l-.13-.14a5.7,5.7,0,0,0-7-.1,4,4,0,0,0-.73.76c-1.41,1.56-1.69,3.59-2.07,5.6,1.93.67,3.83,1.45,5.89,1a4.63,4.63,0,0,0,1-.26,5.68,5.68,0,0,0,3.43-6.13l-.06-.22a13.41,13.41,0,0,1,3.56,1A18.68,18.68,0,0,1,94,34.28h0a18.4,18.4,0,0,1-2.75,7.76,13.29,13.29,0,0,1-2.58,2.67,1.8,1.8,0,0,0-.06-.22,5.69,5.69,0,0,0-6-3.61,4.89,4.89,0,0,0-1,.29c-2,.65-3.26,2.27-4.6,3.82C77,45,79.55,48.17,81.55,48.82ZM63,38.52A11.07,11.07,0,1,0,60.48,54,11.07,11.07,0,0,0,63,38.52ZM61.08,46a.84.84,0,0,0,.26.07,1.44,1.44,0,0,0,1.55-.92v-.05a3.08,3.08,0,0,1,.67.68,4.77,4.77,0,0,1,.71,2h0a4.82,4.82,0,0,1-1.61,1.38,3.91,3.91,0,0,1-.92.26s0,0,0-.06a1.46,1.46,0,0,0-.89-1.57.77.77,0,0,0-.26-.07,2.82,2.82,0,0,0-1.51.26,2.84,2.84,0,0,0,.53,1.44.86.86,0,0,0,.19.19,1.47,1.47,0,0,0,1.81,0l0,0a3.38,3.38,0,0,1,.24.92,4.7,4.7,0,0,1-.39,2.08h0a4.85,4.85,0,0,1-2.08.39,3.48,3.48,0,0,1-.92-.24l0,0a1.47,1.47,0,0,0,0-1.81.86.86,0,0,0-.19-.19A3.74,3.74,0,0,0,57,50.11a2.82,2.82,0,0,0-.26,1.51,1.11,1.11,0,0,0,.07.26,1.45,1.45,0,0,0,1.57.88h.05a3.22,3.22,0,0,1-.25.92,4.7,4.7,0,0,1-1.38,1.6h0a4.64,4.64,0,0,1-2-.7,3,3,0,0,1-.67-.67h0a1.44,1.44,0,0,0,.92-1.55.77.77,0,0,0-.07-.26,2.74,2.74,0,0,0-1-1.18,2.74,2.74,0,0,0-1,1.18,1.12,1.12,0,0,0-.08.26,1.46,1.46,0,0,0,.93,1.55h.05a3.08,3.08,0,0,1-.68.67,4.64,4.64,0,0,1-2,.7h0a4.7,4.7,0,0,1-1.38-1.6,3.47,3.47,0,0,1-.25-.92h.05a1.45,1.45,0,0,0,1.57-.88,1.11,1.11,0,0,0,.07-.26,2.82,2.82,0,0,0-.26-1.51,2.84,2.84,0,0,0-1.44.53.86.86,0,0,0-.19.19,1.47,1.47,0,0,0,0,1.81l0,0a3.38,3.38,0,0,1-.92.24,4.85,4.85,0,0,1-2.08-.39h0a4.7,4.7,0,0,1-.39-2.08,3.83,3.83,0,0,1,.24-.91l0,0a1.47,1.47,0,0,0,1.81,0,.86.86,0,0,0,.19-.19A2.84,2.84,0,0,0,48.89,48a2.82,2.82,0,0,0-1.51-.26.77.77,0,0,0-.26.07,1.44,1.44,0,0,0-.88,1.57.07.07,0,0,0,0,.05,3.22,3.22,0,0,1-.92-.25,4.82,4.82,0,0,1-1.61-1.38h0a4.77,4.77,0,0,1,.71-2,3.27,3.27,0,0,1,.67-.67.06.06,0,0,0,0,0,1.44,1.44,0,0,0,1.55.92.84.84,0,0,0,.26-.07,2.8,2.8,0,0,0,1.18-1,3.82,3.82,0,0,0-1.18-1,1.29,1.29,0,0,0-.26-.08,1.46,1.46,0,0,0-1.55.93l0,.05a3.27,3.27,0,0,1-.66-.68,4.77,4.77,0,0,1-.71-2h0a4.89,4.89,0,0,1,1.61-1.37,3.22,3.22,0,0,1,.92-.25.07.07,0,0,0,0,.05,1.45,1.45,0,0,0,.88,1.57,1.11,1.11,0,0,0,.26.07,2.82,2.82,0,0,0,1.51-.26,2.8,2.8,0,0,0-.53-1.44.86.86,0,0,0-.19-.19,1.47,1.47,0,0,0-1.81,0l0,0a3.38,3.38,0,0,1-.24-.92,4.7,4.7,0,0,1,.39-2.08,4.7,4.7,0,0,1,2.08-.39,3.36,3.36,0,0,1,.92.23s0,0,0,0a1.47,1.47,0,0,0,0,1.81.86.86,0,0,0,.19.19,2.84,2.84,0,0,0,1.44.53,2.84,2.84,0,0,0,.26-1.51,1.34,1.34,0,0,0-.07-.27,1.47,1.47,0,0,0-1.57-.88l-.05,0a3.22,3.22,0,0,1,.25-.92,4.82,4.82,0,0,1,1.38-1.61,4.77,4.77,0,0,1,2,.71,3.27,3.27,0,0,1,.68.66l-.05,0a1.46,1.46,0,0,0-.93,1.55,1.29,1.29,0,0,0,.08.26,2.8,2.8,0,0,0,1,1.18,2.8,2.8,0,0,0,1-1.18.84.84,0,0,0,.07-.26,1.46,1.46,0,0,0-.92-1.55l-.05,0a3.27,3.27,0,0,1,.68-.66,4.77,4.77,0,0,1,2-.71,4.82,4.82,0,0,1,1.38,1.61,3.22,3.22,0,0,1,.25.92l-.05,0a1.47,1.47,0,0,0-1.57.88,1.34,1.34,0,0,0-.07.27A2.84,2.84,0,0,0,57,39.89a2.8,2.8,0,0,0,1.44-.53.86.86,0,0,0,.19-.19,1.47,1.47,0,0,0,0-1.81l0,0a3.13,3.13,0,0,1,.92-.24,4.7,4.7,0,0,1,2.08.39,4.7,4.7,0,0,1,.39,2.08,3.38,3.38,0,0,1-.24.92l0,0a1.47,1.47,0,0,0-1.81,0,.86.86,0,0,0-.19.19,2.8,2.8,0,0,0-.53,1.44,2.82,2.82,0,0,0,1.51.26,1.11,1.11,0,0,0,.26-.07,1.47,1.47,0,0,0,.89-1.57s0,0,0-.06a3.59,3.59,0,0,1,.92.26,4.89,4.89,0,0,1,1.61,1.37h0a4.77,4.77,0,0,1-.71,2,3.58,3.58,0,0,1-.66.69l0-.06a1.46,1.46,0,0,0-1.55-.93,1.29,1.29,0,0,0-.26.08,2.8,2.8,0,0,0-1.18,1A3.82,3.82,0,0,0,61.08,46ZM54,39.35a.49.49,0,1,0,.49.49A.49.49,0,0,0,54,39.35Zm-.1.26s0,0-.07,0,0,.07-.07.07a.19.19,0,0,1-.06-.1s0,0,0-.08.07,0,.08,0S53.91,39.59,53.9,39.61Zm.14-.07-.09,0s0,0-.05,0a.15.15,0,0,0,0-.06s0,0,.08,0,.07,0,.07,0S54.05,39.53,54,39.54Zm5.7,5.3a.49.49,0,1,0-1,.26.49.49,0,0,0,1-.26Zm-.28,0s0,0-.06,0-.08,0-.08,0,0-.08.07-.09a.14.14,0,0,1,.1,0s.06.06,0,.07S59.48,44.81,59.46,44.8Zm.11.12-.06-.07s0,0,0-.05l.05-.06s0,0,.06.07,0,.07,0,.07S59.58,44.93,59.57,44.92Zm-5.77,5.8a.49.49,0,1,0-.34-.61A.5.5,0,0,0,53.8,50.72ZM54,50.5l.08,0c.06,0,.07,0,.09,0a.18.18,0,0,1,0,.11s0,.05-.07.07-.08,0-.09,0S54,50.52,54,50.5Zm-.15,0h.09s0,0,0,0l0,.06s0,0-.09,0-.06,0-.06,0S53.8,50.54,53.82,50.53Zm2.7-.47a.49.49,0,1,0-.34-.61A.5.5,0,0,0,56.52,50.06Zm.17-.22s0,0,.08,0,.07-.05.08,0,0,.09,0,.11,0,0-.08.07h-.08S56.68,49.86,56.69,49.84Zm-.15,0,.09,0s0,0,0,0a.33.33,0,0,0,0,.06s0,0-.09,0a.08.08,0,0,1-.07,0S56.52,49.88,56.54,49.87Zm-7.26-7a.49.49,0,0,0,.61-.34.5.5,0,0,0-.34-.61.49.49,0,0,0-.6.34A.48.48,0,0,0,49.28,42.82Zm.18-.22s0,0,.08,0,.06,0,.08,0a.18.18,0,0,1,0,.11s0,0-.07.07-.08,0-.09,0S49.44,42.62,49.46,42.6Zm-.16,0h.09s0,0,0,0a.41.41,0,0,0,0,.07s0,0-.09,0-.06,0-.06,0S49.28,42.64,49.3,42.63Zm-.67,2.84a.49.49,0,1,0,.27-.94.49.49,0,0,0-.27.94Zm.17-.21s0,0,.09,0,.06,0,.08,0a.2.2,0,0,1,0,.11s0,.05-.07.07-.08,0-.09,0S48.79,45.27,48.8,45.26Zm-.15,0,.09,0s0,0,0,0a.24.24,0,0,1,0,.07s0,0-.09,0-.06,0-.06,0S48.63,45.29,48.65,45.29Zm10.27,2.65a.49.49,0,1,0-.85-.49.49.49,0,0,0,.85.49Zm-.17-.22s0,0,0-.08,0-.08,0-.09.1,0,.12,0,0,0,0,.09,0,.08,0,.08S58.76,47.74,58.75,47.72Zm0,.16a.44.44,0,0,1,0-.09s0,0,0,0h.07s0,0,0,.09,0,.06-.05.05S58.74,47.9,58.74,47.88Zm-7.81-7.3a.49.49,0,0,0,.67.19.49.49,0,1,0-.48-.85A.49.49,0,0,0,50.93,40.58Zm.28,0s0,0,.07,0,.09,0,.09,0,0,.09,0,.1a.12.12,0,0,1-.1,0s-.07,0-.07-.05S51.19,40.55,51.21,40.55Zm-.13-.09.07.06s0,0,0,0l0,.06s0,0-.07-.05,0-.06,0-.07S51.06,40.46,51.08,40.46ZM51,50a.49.49,0,1,0,.49-.85.48.48,0,0,0-.67.18A.49.49,0,0,0,51,50Zm.22-.17s0,0,.08,0,.08,0,.09,0,0,.1,0,.12,0,0-.09,0-.08,0-.08,0S51.15,49.85,51.17,49.84Zm-.16,0h.1s0,0,0,0V50s0,0-.09,0-.05,0-.05,0S51,49.83,51,49.83Zm-1.83-1.75a.49.49,0,0,0,.67-.19.48.48,0,0,0-.18-.67.5.5,0,0,0-.67.19A.5.5,0,0,0,49.18,48.08Zm.22-.17s0,0,.09,0,.07,0,.09,0a.17.17,0,0,1,0,.12s0,0-.09,0-.08,0-.08,0S49.38,47.92,49.4,47.91Zm-.16,0h.1s0,0,0,0a.56.56,0,0,1,0,.07s-.05,0-.09,0,0,0,0-.06S49.23,47.9,49.24,47.9ZM58.34,42a.49.49,0,1,0,.67.19A.49.49,0,0,0,58.34,42Zm0,.28s0,0,0,.07,0,.08,0,.09-.09,0-.11,0a.12.12,0,0,1,0-.1c0-.05,0-.07.06-.07S58.37,42.24,58.37,42.27Zm.09-.14-.05.08s0,0-.06,0l-.06,0s0,0,.05-.07.06,0,.07,0S58.47,42.12,58.46,42.13Zm-2-2.09a.49.49,0,1,0,.67.19A.48.48,0,0,0,56.43,40Zm0,.27s0,0,0,.07,0,.09,0,.1l-.11-.06a.12.12,0,0,1,0-.1s0-.07.06-.07S56.46,40.29,56.46,40.31Zm.09-.13,0,.07s0,0-.06,0l-.06,0s0,0,0-.07.06,0,.07,0S56.56,40.16,56.55,40.18Zm3.06-15.92a1.86,1.86,0,1,0-1,3.59,1.86,1.86,0,0,0,1-3.59Zm-.64.83c0,.06-.09,0-.3.1s-.26.2-.31.19S58.2,25,58.22,25s.11-.17.29-.25.29-.07.32,0S59,25,59,25.09Zm.58-.12a1.58,1.58,0,0,1-.34.06c-.15,0-.13,0-.17-.12a2,2,0,0,0-.09-.24c0-.08.15-.1.32-.06s.24.1.24.15S59.62,25,59.55,25ZM75.13,50a1.86,1.86,0,1,0-1.86,1.86A1.87,1.87,0,0,0,75.13,50Zm-1-.4c-.07,0,0-.08-.17-.26s-.26-.19-.27-.25.29-.25.38-.25.2.06.32.21.15.26.11.3S74.23,49.61,74.16,49.57Zm.27.53a2.18,2.18,0,0,1-.15-.31c-.06-.15,0-.13.07-.19l.22-.16c.06,0,.13.12.14.3s0,.25-.09.27S74.47,50.16,74.43,50.1ZM47.63,65.58A1.86,1.86,0,1,0,47,63,1.86,1.86,0,0,0,47.63,65.58Zm.84-.62c.06,0,.08,0,.32,0s.3-.12.35-.09.06.37,0,.45a.49.49,0,0,1-.35.16c-.19,0-.3,0-.32,0S48.41,65,48.47,65Zm-.59,0a1.75,1.75,0,0,1,.35,0c.15,0,.11.06.12.16s0,.13,0,.26-.17,0-.33,0-.2-.16-.19-.22S47.8,64.92,47.88,64.91Zm10.33.94a1.86,1.86,0,1,0-.63-2.55A1.86,1.86,0,0,0,58.21,65.85Zm.84-.63c.07,0,.09,0,.32,0s.3-.12.35-.09.06.37,0,.44-.16.14-.35.17-.3,0-.32-.06S59,65.26,59.05,65.22Zm-.59,0,.35,0c.15,0,.11.07.12.17s0,.12,0,.26-.17,0-.33,0-.2-.17-.19-.22S58.38,65.18,58.46,65.18ZM38.94,32.26a1.86,1.86,0,1,0-.63-2.55A1.86,1.86,0,0,0,38.94,32.26Zm.84-.62c.07,0,.08,0,.32,0s.29-.12.35-.1a.75.75,0,0,1,0,.45c0,.08-.16.14-.35.17s-.3,0-.32-.06S39.72,31.68,39.78,31.64Zm-.59,0,.35,0c.15,0,.11.06.12.16s0,.13,0,.27-.17,0-.33,0-.2-.16-.19-.21S39.11,31.6,39.19,31.6ZM34,41.3a1.85,1.85,0,1,0-.64-2.55A1.84,1.84,0,0,0,34,41.3Zm.83-.62c.07,0,.09,0,.32,0s.3-.12.35-.1a.75.75,0,0,1,0,.45c0,.08-.16.14-.35.17s-.3,0-.32-.06S34.72,40.72,34.78,40.68Zm-.59,0,.35,0c.15,0,.11.06.12.17s0,.12,0,.26-.17,0-.33,0-.2-.17-.19-.22S34.12,40.64,34.19,40.64ZM69.07,60.49a1.86,1.86,0,1,0-2.63,0A1.86,1.86,0,0,0,69.07,60.49Zm-.4-1c0-.07,0-.07.06-.3s0-.32,0-.37a.73.73,0,0,1,.44.09.44.44,0,0,1,.08.38c0,.19-.08.29-.13.29S68.69,59.6,68.67,59.52Zm-.19.57a2.48,2.48,0,0,1,.12-.33c.06-.15.09-.09.19-.08l.26,0c.08,0,0,.17-.11.31s-.21.16-.26.13S68.47,60.16,68.48,60.09ZM47.18,25.73a1.86,1.86,0,1,0,1.35-2.25A1.86,1.86,0,0,0,47.18,25.73Zm1,.15c.08,0,0,.08.24.21s.29.13.31.18-.22.31-.3.34a.5.5,0,0,1-.37-.13c-.15-.12-.2-.23-.18-.27S48.14,25.86,48.21,25.88Zm-.39-.45a2.49,2.49,0,0,1,.23.27c.09.12,0,.12,0,.2l-.17.21c-.05.06-.16-.09-.21-.26s0-.26,0-.28S47.77,25.38,47.82,25.43Zm-9.9,34.74a1.86,1.86,0,1,0,0-2.63A1.86,1.86,0,0,0,37.92,60.17Zm1-.41c.07,0,.07.05.31.07s.31,0,.36,0a.73.73,0,0,1-.09.44.44.44,0,0,1-.38.08c-.18,0-.29-.09-.29-.14S38.81,59.79,38.89,59.76Zm-.57-.18.33.12c.14,0,.1.08.08.18s0,.13,0,.27-.17,0-.31-.11-.16-.21-.13-.26S38.25,59.57,38.32,59.58Zm-4.94-8.22a1.86,1.86,0,1,0,0-2.63A1.86,1.86,0,0,0,33.38,51.36Zm1-.41c.07,0,.07,0,.31.07S35,51,35,51s0,.38-.08.44a.44.44,0,0,1-.38.08c-.19,0-.29-.08-.3-.13S34.27,51,34.34,51Zm-.57-.18.34.12c.14,0,.09.08.08.18s0,.13,0,.27-.18,0-.31-.11-.16-.21-.13-.26S33.7,50.76,33.77,50.77ZM72.84,38.19a1.86,1.86,0,1,0,2.25,1.35A1.87,1.87,0,0,0,72.84,38.19Zm-.16,1c0,.08-.07,0-.21.23s-.13.3-.18.32a.78.78,0,0,1-.33-.3.43.43,0,0,1,.13-.37c.11-.15.22-.2.26-.18S72.7,39.15,72.68,39.22Zm.46-.39a2.36,2.36,0,0,1-.28.22c-.12.1-.12,0-.2,0l-.2-.17c-.06,0,.08-.16.25-.21s.26,0,.29,0S73.19,38.78,73.14,38.83Zm-5.35-9.67A1.86,1.86,0,1,0,70,30.51,1.85,1.85,0,0,0,67.79,29.16Zm-.15,1c0,.08-.08,0-.22.23s-.12.3-.18.32-.3-.22-.33-.3a.5.5,0,0,1,.13-.37c.11-.15.22-.2.27-.18S67.65,30.12,67.64,30.19Zm.45-.39a2.49,2.49,0,0,1-.27.23c-.12.09-.13,0-.2,0l-.21-.17c-.06,0,.09-.16.26-.21s.25,0,.28,0S68.14,29.75,68.09,29.8Z"/></g></g></svg>