<svg xmlns="http://www.w3.org/2000/svg" viewBox="0 0 178.45 63"><defs><style>.cls-1{fill:#f1ce95;}.cls-2{fill:#82c5be;}</style></defs><g id="Layer_2" data-name="Layer 2"><g id="Layer_1-2" data-name="Layer 1"><path class="cls-1" d="M70.47,28.48H71a.28.28,0,0,1,.16.05.33.33,0,0,1,.1.14L74.71,37a5.05,5.05,0,0,1,.22.69,4.31,4.31,0,0,1,.2-.69l3.4-8.3a.64.64,0,0,1,.1-.13.25.25,0,0,1,.17-.06h.57l-4.13,10H74.6Z"/><path class="cls-1" d="M87.81,38.48h-.56a.28.28,0,0,1-.16,0,.36.36,0,0,1-.1-.14l-1.18-2.91H80.9l-1.17,2.91a.45.45,0,0,1-.1.14.34.34,0,0,1-.17,0h-.55l4.09-10h.72Zm-6.69-3.63H85.6l-2-5.05a2.31,2.31,0,0,1-.1-.28,3,3,0,0,1-.1-.32c0,.11-.07.22-.1.32s-.07.2-.1.28Z"/><path class="cls-1" d="M91.52,34.36v4.12h-.73V34.36L87.1,28.48h.63a.24.24,0,0,1,.16.05.81.81,0,0,1,.11.13l2.86,4.59a2,2,0,0,1,.17.32c0,.1.09.2.13.3,0-.1.08-.2.13-.3a3.37,3.37,0,0,1,.17-.32l2.85-4.59a.47.47,0,0,1,.11-.13.28.28,0,0,1,.16-.05h.64Z"/><path class="cls-1" d="M100.57,38a3.06,3.06,0,0,0,1.29-.26,2.69,2.69,0,0,0,1-.69,3.2,3.2,0,0,0,.6-1.05,3.94,3.94,0,0,0,.21-1.3V28.48h.72v6.19a4.33,4.33,0,0,1-.26,1.54,3.6,3.6,0,0,1-.75,1.25,3.42,3.42,0,0,1-1.2.84,4.28,4.28,0,0,1-3.15,0,3.33,3.33,0,0,1-1.2-.84,3.6,3.6,0,0,1-.75-1.25,4.33,4.33,0,0,1-.26-1.54V28.48h.73v6.18a3.89,3.89,0,0,0,.2,1.3,3.2,3.2,0,0,0,.6,1,2.75,2.75,0,0,0,1,.7A3,3,0,0,0,100.57,38Z"/><path class="cls-2" d="M108.61,28.48h.6a.24.24,0,0,1,.26.19L112,36.89c0,.1,0,.2.07.31s0,.22.07.33a3.2,3.2,0,0,1,.07-.33,2.81,2.81,0,0,1,.08-.31l2.83-8.22a.31.31,0,0,1,.1-.13.25.25,0,0,1,.17-.06h.2a.28.28,0,0,1,.16.05.45.45,0,0,1,.1.14l2.82,8.22a1.71,1.71,0,0,1,.09.3c0,.1,0,.21.08.33l.06-.33c0-.1,0-.2.07-.3l2.53-8.22a.22.22,0,0,1,.09-.13.27.27,0,0,1,.17-.06h.55l-3.14,10h-.65l-3-8.68a3.1,3.1,0,0,1-.1-.36,3.1,3.1,0,0,1-.1.36l-3,8.68h-.65Z"/><path class="cls-2" d="M129.92,28.48v.6h-5.27v4H129v.59h-4.39v4.17h5.27v.6h-6v-10Z"/><path class="cls-2" d="M133,37.87h4.74v.61h-5.46v-10H133Z"/><path class="cls-2" d="M140.23,37.87H145v.61h-5.46v-10h.72Z"/><path class="cls-2" d="M147.25,28.5a.34.34,0,0,1,.12.12l6.47,8.66c0-.14,0-.28,0-.41V28.48h.64v10h-.35a.31.31,0,0,1-.26-.14l-6.5-8.68c0,.14,0,.28,0,.4v8.42h-.63v-10h.35Z"/><path class="cls-2" d="M163.42,28.48v.6h-5.27v4h4.39v.59h-4.39v4.17h5.27v.6h-6v-10Z"/><path class="cls-2" d="M170.62,29.7a.19.19,0,0,1-.18.12.47.47,0,0,1-.24-.13,2.82,2.82,0,0,0-.39-.29,3.09,3.09,0,0,0-.63-.3,2.66,2.66,0,0,0-.91-.13,2.76,2.76,0,0,0-1,.15,2.12,2.12,0,0,0-.7.43,1.63,1.63,0,0,0-.42.62,1.88,1.88,0,0,0-.15.74,1.46,1.46,0,0,0,.22.84,1.82,1.82,0,0,0,.57.57,3.5,3.5,0,0,0,.8.39l.93.32c.31.1.62.21.92.34a3.18,3.18,0,0,1,.8.47,2.17,2.17,0,0,1,.57.7,2.2,2.2,0,0,1,.22,1,3.35,3.35,0,0,1-.22,1.19,2.69,2.69,0,0,1-.62,1,3.08,3.08,0,0,1-1,.65,3.62,3.62,0,0,1-1.36.24,3.88,3.88,0,0,1-1.7-.35,4.31,4.31,0,0,1-1.25-1l.2-.31a.24.24,0,0,1,.2-.11.29.29,0,0,1,.16.09l.24.2a3.37,3.37,0,0,0,.34.27,2.23,2.23,0,0,0,.46.27,3.8,3.8,0,0,0,.6.21,3,3,0,0,0,.77.08,2.87,2.87,0,0,0,1.06-.18,2.16,2.16,0,0,0,.79-.49,1.88,1.88,0,0,0,.49-.74,2.3,2.3,0,0,0,.17-.91,1.62,1.62,0,0,0-.21-.87,2,2,0,0,0-.57-.58,3.57,3.57,0,0,0-.81-.38l-.92-.31a9.11,9.11,0,0,1-.92-.33,3.24,3.24,0,0,1-.81-.47,2.18,2.18,0,0,1-.56-.71,2.29,2.29,0,0,1-.22-1.07,2.47,2.47,0,0,1,.19-1,2.31,2.31,0,0,1,.56-.82,2.79,2.79,0,0,1,.91-.58,3.37,3.37,0,0,1,1.23-.21,3.64,3.64,0,0,1,1.4.25,3.28,3.28,0,0,1,1.13.75Z"/><path class="cls-2" d="M178,29.7a.22.22,0,0,1-.19.12.42.42,0,0,1-.23-.13,2.45,2.45,0,0,0-.4-.29,2.76,2.76,0,0,0-.62-.3,2.72,2.72,0,0,0-.92-.13,2.85,2.85,0,0,0-1,.15,2,2,0,0,0-.69.43,1.77,1.77,0,0,0-.43.62,2.07,2.07,0,0,0-.14.74,1.54,1.54,0,0,0,.21.84,2.06,2.06,0,0,0,.57.57,3.8,3.8,0,0,0,.81.39l.92.32a9.15,9.15,0,0,1,.92.34,3.24,3.24,0,0,1,.81.47,2.14,2.14,0,0,1,.56.7,2.08,2.08,0,0,1,.22,1,3.15,3.15,0,0,1-.22,1.19,2.57,2.57,0,0,1-.62,1,3,3,0,0,1-1,.65,3.54,3.54,0,0,1-1.35.24,3.85,3.85,0,0,1-1.7-.35,4.06,4.06,0,0,1-1.25-1l.19-.31a.27.27,0,0,1,.2-.11.26.26,0,0,1,.16.09l.25.2a2,2,0,0,0,.34.27,2.23,2.23,0,0,0,.46.27,3.48,3.48,0,0,0,.6.21,3,3,0,0,0,.77.08,2.91,2.91,0,0,0,1.06-.18,2.25,2.25,0,0,0,.79-.49,2,2,0,0,0,.49-.74,2.3,2.3,0,0,0,.17-.91,1.62,1.62,0,0,0-.21-.87,2.1,2.1,0,0,0-.57-.58,3.78,3.78,0,0,0-.81-.38l-.92-.31a9.29,9.29,0,0,1-.93-.33,3.18,3.18,0,0,1-.8-.47A2.21,2.21,0,0,1,173,32a2.43,2.43,0,0,1-.21-1.07,2.47,2.47,0,0,1,.19-1,2.31,2.31,0,0,1,.56-.82,2.74,2.74,0,0,1,.9-.58,3.43,3.43,0,0,1,1.24-.21,3.64,3.64,0,0,1,1.4.25,3.16,3.16,0,0,1,1.12.75Z"/><path class="cls-2" d="M57,13.07a31.5,31.5,0,1,0-7.11,44A31.49,31.49,0,0,0,57,13.07ZM50.79,34.18a3.29,3.29,0,0,0,.7.19,4,4,0,0,0,4.23-2.52l0-.13a9,9,0,0,1,1.81,1.84A13,13,0,0,1,59.49,39h0a13,13,0,0,1-4.38,3.75,9.66,9.66,0,0,1-2.49.7l0-.15a4,4,0,0,0-2.4-4.3,4.35,4.35,0,0,0-.71-.18,7.72,7.72,0,0,0-4.13.71,7.71,7.71,0,0,0,1.45,3.93,4.33,4.33,0,0,0,.52.53,4,4,0,0,0,4.92-.08l.1-.09a8.53,8.53,0,0,1,.64,2.5A12.87,12.87,0,0,1,52,52h0a12.84,12.84,0,0,1-5.67,1,9,9,0,0,1-2.5-.64l.09-.1A4,4,0,0,0,44,47.38a3.72,3.72,0,0,0-.53-.52c-1.1-1-3.93-1.45-3.93-1.45a7.62,7.62,0,0,0-.7,4.13,3,3,0,0,0,.18.71,4,4,0,0,0,4.3,2.4l.13,0a8.94,8.94,0,0,1-.69,2.48A13,13,0,0,1,39,59.49h0a12.82,12.82,0,0,1-5.44-1.93,9.21,9.21,0,0,1-1.83-1.81l.12,0a4,4,0,0,0,2.53-4.23,4.14,4.14,0,0,0-.2-.71,7.72,7.72,0,0,0-2.68-3.21,7.65,7.65,0,0,0-2.68,3.21,4.14,4.14,0,0,0-.2.71,4,4,0,0,0,2.53,4.23l.13,0a9,9,0,0,1-1.84,1.8A12.82,12.82,0,0,1,24,59.49h0a13,13,0,0,1-3.75-4.39,9.86,9.86,0,0,1-.69-2.48l.13,0a4,4,0,0,0,4.3-2.4,3,3,0,0,0,.18-.71,7.62,7.62,0,0,0-.7-4.13,7.71,7.71,0,0,0-3.93,1.45,3.72,3.72,0,0,0-.53.52,4,4,0,0,0,.08,4.92l.09.1a8.85,8.85,0,0,1-2.5.64A12.84,12.84,0,0,1,11,52h0a12.87,12.87,0,0,1-1-5.67,9.29,9.29,0,0,1,.66-2.49.3.3,0,0,0,.08.08,4,4,0,0,0,4.92.08,3.62,3.62,0,0,0,.51-.53,7.63,7.63,0,0,0,1.46-3.93,7.72,7.72,0,0,0-4.13-.71,4.35,4.35,0,0,0-.71.18,4,4,0,0,0-2.4,4.3l0,.14a9.1,9.1,0,0,1-2.49-.69A13,13,0,0,1,3.51,39h0a13,13,0,0,1,1.92-5.44,9.18,9.18,0,0,1,1.82-1.81l0,.1a4,4,0,0,0,4.23,2.52,3.29,3.29,0,0,0,.7-.19,7.61,7.61,0,0,0,3.22-2.68s-1.81-2.22-3.22-2.68a4,4,0,0,0-.7-.2,4,4,0,0,0-4.23,2.53.65.65,0,0,0,0,.13,9,9,0,0,1-1.81-1.84A13,13,0,0,1,3.51,24h0a13,13,0,0,1,4.38-3.75,8.76,8.76,0,0,1,2.49-.69l0,.13a4,4,0,0,0,2.4,4.3,3,3,0,0,0,.71.18,7.54,7.54,0,0,0,4.13-.71,7.63,7.63,0,0,0-1.46-3.92,3.18,3.18,0,0,0-.51-.53,4,4,0,0,0-4.92.07l-.1.1a8.85,8.85,0,0,1-.64-2.5A12.84,12.84,0,0,1,11,11a12.87,12.87,0,0,1,5.67-1,9.32,9.32,0,0,1,2.52.63l-.11.11A4,4,0,0,0,19,15.62a3.18,3.18,0,0,0,.53.51,7.72,7.72,0,0,0,3.93,1.46,7.62,7.62,0,0,0,.7-4.13,3,3,0,0,0-.18-.71,4,4,0,0,0-4.3-2.4l-.13,0a8.94,8.94,0,0,1,.69-2.48A13,13,0,0,1,24,3.51a12.82,12.82,0,0,1,5.44,1.93,8.71,8.71,0,0,1,1.84,1.8l-.13,0a4,4,0,0,0-2.53,4.23,4,4,0,0,0,.2.7,7.67,7.67,0,0,0,2.68,3.22,7.75,7.75,0,0,0,2.68-3.22,4,4,0,0,0,.2-.7,4,4,0,0,0-2.53-4.23l-.13,0a8.48,8.48,0,0,1,1.84-1.8A12.82,12.82,0,0,1,39,3.51,13,13,0,0,1,42.75,7.9a8.61,8.61,0,0,1,.69,2.48l-.13,0a4,4,0,0,0-4.3,2.4,3,3,0,0,0-.18.71,7.62,7.62,0,0,0,.7,4.13,7.72,7.72,0,0,0,3.93-1.46,3.18,3.18,0,0,0,.53-.51,4,4,0,0,0-.08-4.92.76.76,0,0,0-.09-.09,8.4,8.4,0,0,1,2.5-.65A12.87,12.87,0,0,1,52,11a12.84,12.84,0,0,1,1,5.67,8.53,8.53,0,0,1-.64,2.5l-.1-.1A4,4,0,0,0,47.38,19a3.72,3.72,0,0,0-.52.53,7.71,7.71,0,0,0-1.45,3.92,7.54,7.54,0,0,0,4.13.71,3,3,0,0,0,.71-.18,4,4,0,0,0,2.4-4.3.74.74,0,0,0,0-.14,9.45,9.45,0,0,1,2.5.7A13,13,0,0,1,59.49,24h0a13,13,0,0,1-1.92,5.44,9.36,9.36,0,0,1-1.81,1.86.83.83,0,0,0,0-.15,4,4,0,0,0-4.23-2.53,4,4,0,0,0-.7.2,7.61,7.61,0,0,0-3.22,2.68S49.38,33.72,50.79,34.18ZM37.79,27A7.76,7.76,0,1,0,36,37.79,7.77,7.77,0,0,0,37.79,27Zm-1.33,5.23.18.05a1,1,0,0,0,1.08-.65v0a2.1,2.1,0,0,1,.47.47,3.27,3.27,0,0,1,.49,1.4h0a3.27,3.27,0,0,1-1.12,1,2.25,2.25,0,0,1-.64.18v0a1,1,0,0,0-.62-1.1.61.61,0,0,0-.18,0,1.93,1.93,0,0,0-1.06.18,1.8,1.8,0,0,0,.37,1,.86.86,0,0,0,.13.14,1,1,0,0,0,1.27,0l0,0a2,2,0,0,1,.17.64,3.48,3.48,0,0,1-.27,1.45h0a3.55,3.55,0,0,1-1.46.27,2.42,2.42,0,0,1-.64-.17l0,0a1,1,0,0,0,0-1.26.86.86,0,0,0-.14-.13,2.48,2.48,0,0,0-1-.37,1.93,1.93,0,0,0-.18,1.06.61.61,0,0,0,0,.18,1,1,0,0,0,1.1.61h0a2.34,2.34,0,0,1-.18.64,3.27,3.27,0,0,1-1,1.12h0A3.27,3.27,0,0,1,32,38.2a2.32,2.32,0,0,1-.47-.47h0a1,1,0,0,0,.65-1.08,1.33,1.33,0,0,0-.05-.19,2,2,0,0,0-.69-.82,2,2,0,0,0-.69.82,1.33,1.33,0,0,0,0,.19,1,1,0,0,0,.65,1.08h0a2.1,2.1,0,0,1-.47.47,3.27,3.27,0,0,1-1.4.49h0a3.27,3.27,0,0,1-1-1.12,2.63,2.63,0,0,1-.18-.64h0a1,1,0,0,0,1.1-.61.61.61,0,0,0,.05-.18,1.93,1.93,0,0,0-.18-1.06,1.8,1.8,0,0,0-1,.37.86.86,0,0,0-.14.13,1,1,0,0,0,0,1.26l0,0a2,2,0,0,1-.64.17,3.55,3.55,0,0,1-1.46-.27h0A3.48,3.48,0,0,1,26,35.31a2.42,2.42,0,0,1,.17-.64l0,0a1,1,0,0,0,1.27,0,.86.86,0,0,0,.13-.14,1.8,1.8,0,0,0,.37-1,1.93,1.93,0,0,0-1.06-.18.61.61,0,0,0-.18,0,1,1,0,0,0-.62,1.1.08.08,0,0,1,0,0,2.34,2.34,0,0,1-.64-.18,3.27,3.27,0,0,1-1.12-1h0A3.27,3.27,0,0,1,24.8,32a2.32,2.32,0,0,1,.47-.47v0a1,1,0,0,0,1.09.65l.18-.05a2,2,0,0,0,.83-.69,2.68,2.68,0,0,0-.83-.69l-.18,0a1,1,0,0,0-1.09.65v0A2.33,2.33,0,0,1,24.8,31a3.27,3.27,0,0,1-.49-1.4h0a3.27,3.27,0,0,1,1.12-1,2.34,2.34,0,0,1,.64-.18.08.08,0,0,1,0,0,1,1,0,0,0,.62,1.1.61.61,0,0,0,.18.05,1.93,1.93,0,0,0,1.06-.19,1.8,1.8,0,0,0-.37-1,.58.58,0,0,0-.13-.14,1,1,0,0,0-1.27,0,0,0,0,0,1,0,0,2.09,2.09,0,0,1-.17-.64,3.55,3.55,0,0,1,.27-1.46A3.55,3.55,0,0,1,27.69,26a2.15,2.15,0,0,1,.65.17l0,0a1,1,0,0,0,0,1.27.86.86,0,0,0,.14.13,2,2,0,0,0,1,.37,1.93,1.93,0,0,0,.18-1.06.61.61,0,0,0-.05-.18,1,1,0,0,0-1.1-.62h0a2.34,2.34,0,0,1,.18-.64,3.27,3.27,0,0,1,1-1.12,3.27,3.27,0,0,1,1.4.49,2.1,2.1,0,0,1,.47.47h0a1,1,0,0,0-.65,1.08,1,1,0,0,0,0,.18,2,2,0,0,0,.69.83,2,2,0,0,0,.69-.83,1,1,0,0,0,.05-.18,1,1,0,0,0-.65-1.08h0A2.1,2.1,0,0,1,32,24.8a3.27,3.27,0,0,1,1.4-.49,3.27,3.27,0,0,1,1,1.12,2.34,2.34,0,0,1,.18.64h0a1,1,0,0,0-1.1.62.61.61,0,0,0,0,.18,1.93,1.93,0,0,0,.18,1.06,2,2,0,0,0,1-.37.86.86,0,0,0,.14-.13,1,1,0,0,0,0-1.27,0,0,0,0,1,0,0,2.09,2.09,0,0,1,.64-.17,3.55,3.55,0,0,1,1.46.27A3.55,3.55,0,0,1,37,27.69a2.09,2.09,0,0,1-.17.64l0,0a1,1,0,0,0-1.27,0,.58.58,0,0,0-.13.14,1.8,1.8,0,0,0-.37,1,1.93,1.93,0,0,0,1.06.19.61.61,0,0,0,.18-.05,1,1,0,0,0,.62-1.1v0a2.34,2.34,0,0,1,.64.18,3.27,3.27,0,0,1,1.12,1h0A3.27,3.27,0,0,1,38.2,31a2.37,2.37,0,0,1-.47.48.06.06,0,0,0,0,0,1,1,0,0,0-1.08-.65l-.18,0a2,2,0,0,0-.83.69A2.68,2.68,0,0,0,36.46,32.19Zm-5-4.64a.34.34,0,0,0,0,.68.34.34,0,1,0,0-.68Zm-.07.18s0,0-.05,0,0,0-.05,0,0-.06,0-.07a.07.07,0,0,1,0-.06s.05,0,.05,0A.13.13,0,0,1,31.43,27.73Zm.1-.06a.1.1,0,0,1-.06,0s0,0,0,0l0,0,.06,0s.05,0,.05,0S31.54,27.67,31.53,27.67Zm4,3.72a.36.36,0,0,0-.43-.25.35.35,0,0,0,.19.67A.34.34,0,0,0,35.52,31.39Zm-.2,0,0,0-.06,0s0-.06.06-.06,0,0,.06,0,0,0,0,.05S35.34,31.37,35.32,31.36Zm.08.08,0,0s0,0,0,0l0,0s0,0,0,.05,0,0,0,.05S35.41,31.45,35.4,31.44Zm-4,4.06a.34.34,0,1,0,.19-.66.34.34,0,0,0-.42.24A.33.33,0,0,0,31.36,35.5Zm.12-.15.06,0s0,0,.06,0,0,.06,0,.08l-.05,0h-.06S31.47,35.36,31.48,35.35Zm-.11,0h.07s0,0,0,0a.09.09,0,0,0,0,0s0,0-.06,0,0,0,0,0S31.36,35.38,31.37,35.37ZM33.26,35a.34.34,0,1,0,.19-.66.34.34,0,0,0-.19.66Zm.12-.15.06,0s.05,0,.06,0,0,.06,0,.08,0,0-.05,0h-.06S33.37,34.9,33.38,34.89Zm-.1,0h.06s0,0,0,0l0,0h-.06s0,0,0,0S33.26,34.91,33.28,34.91ZM28.2,30a.33.33,0,0,0,.42-.23.35.35,0,0,0-.23-.43.35.35,0,0,0-.43.24A.34.34,0,0,0,28.2,30Zm.12-.15h.05c.05,0,.05,0,.06,0s0,.06,0,.08,0,0-.06,0,0,0-.06,0S28.31,29.83,28.32,29.82Zm-.11,0h.06s0,0,0,0l0,0s0,0-.06,0,0,0,0,0S28.2,29.85,28.21,29.84Zm-.47,2a.34.34,0,0,0,.43-.24.34.34,0,1,0-.43.24Zm.12-.15.06,0s0,0,.06,0,0,.06,0,.08,0,0-.05,0-.06,0-.06,0S27.85,31.69,27.86,31.68Zm-.1,0h.06s0,0,0,0l0,.05s0,0-.06,0,0,0,0,0S27.74,31.7,27.76,31.7Zm7.18,1.86a.34.34,0,0,0-.12-.47.33.33,0,0,0-.47.13.34.34,0,0,0,.12.47A.35.35,0,0,0,34.94,33.56Zm-.12-.15s0,0,0-.06,0-.06,0-.07h.09s0,0,0,.06,0,.06,0,.06S34.83,33.42,34.82,33.41Zm0,.11v-.07s0,0,0,0h0s0,0,0,.06l0,0Zm-5.47-5.11a.36.36,0,0,0,.47.13.33.33,0,0,0,.13-.47.34.34,0,0,0-.46-.13A.35.35,0,0,0,29.35,28.41Zm.2,0s0,0,.05,0l.06,0s0,.07,0,.07,0,0-.07,0,0,0,0,0S29.53,28.39,29.55,28.39Zm-.1-.07.06,0s0,0,0,0,0,0,0,0,0,0,0,0,0-.05,0-.05S29.44,28.32,29.45,28.32ZM29.37,35a.34.34,0,1,0-.13-.47A.34.34,0,0,0,29.37,35Zm.15-.12h.06s.05,0,.06,0a.25.25,0,0,1,0,.09l-.07,0a.06.06,0,0,1-.06,0S29.51,34.9,29.52,34.89Zm-.11,0h.06s0,0,0,0v0s0,0-.06,0,0,0,0,0S29.39,34.88,29.41,34.88Zm-1.28-1.23a.34.34,0,0,0,.47-.12.35.35,0,0,0-.13-.47.34.34,0,1,0-.34.59Zm.15-.11h.06l.06,0a.11.11,0,0,1,0,.08.09.09,0,0,1-.06,0s-.06,0-.06,0S28.27,33.54,28.28,33.54Zm-.11,0h.07s0,0,0,0v0s0,0-.07,0,0,0,0,0S28.16,33.53,28.17,33.53Zm6.37-4.14a.34.34,0,0,0-.13.47.33.33,0,0,0,.46.13.34.34,0,0,0,.14-.46A.35.35,0,0,0,34.54,29.39Zm0,.2s0,0,0,.05,0,.06,0,.06-.07,0-.08,0,0,0,0-.07,0,0,0,0S34.56,29.57,34.56,29.59Zm.06-.1s0,0,0,.06,0,0,0,0l0,0s0,0,0-.05,0,0,.05,0S34.63,29.48,34.62,29.49ZM33.2,28a.34.34,0,0,0-.13.47.35.35,0,0,0,.47.14.36.36,0,0,0,.13-.47A.35.35,0,0,0,33.2,28Zm0,.2s0,0,0,.05,0,.06,0,.06-.07,0-.07,0a.11.11,0,0,1,0-.08s0,0,0,0S33.22,28.2,33.22,28.22Zm.06-.1s0,0,0,.06,0,0,0,0l0,0s0,0,0-.05h0S33.29,28.11,33.28,28.12ZM35.42,17a1.31,1.31,0,1,0,.92,1.6A1.31,1.31,0,0,0,35.42,17Zm-.44.58c0,.05-.06,0-.21.07s-.18.14-.22.14-.11-.24-.1-.3.08-.13.2-.18.21-.05.23,0S35,17.52,35,17.56Zm.41-.08-.24,0c-.11,0-.09,0-.12-.08L35,17.27c0-.06.11-.07.23,0s.17.07.17.11S35.44,17.46,35.39,17.48ZM46.29,35a1.3,1.3,0,1,0-1.3,1.3A1.3,1.3,0,0,0,46.29,35Zm-.68-.28s0-.06-.12-.18-.18-.14-.18-.18.2-.17.26-.18a.33.33,0,0,1,.22.15c.09.11.11.19.08.22S45.66,34.72,45.61,34.7Zm.19.37-.11-.22c0-.1,0-.09.06-.13l.15-.11s.09.08.1.2,0,.18-.07.2S45.83,35.11,45.8,35.07ZM27,45.91a1.31,1.31,0,0,0,1.79-.45,1.3,1.3,0,0,0-2.23-1.34A1.31,1.31,0,0,0,27,45.91Zm.59-.44s.06,0,.22,0,.21-.08.25-.07a.57.57,0,0,1,0,.32.33.33,0,0,1-.24.11c-.13,0-.21,0-.23,0S27.58,45.5,27.63,45.47Zm-.42,0,.25,0c.11,0,.08,0,.09.12a1.36,1.36,0,0,0,0,.18c0,.06-.11,0-.23,0s-.14-.12-.13-.15S27.16,45.44,27.21,45.44Zm7.24.65A1.3,1.3,0,1,0,34,44.31,1.3,1.3,0,0,0,34.45,46.09Zm.59-.43s.05,0,.22,0,.21-.09.24-.07,0,.26,0,.32a.33.33,0,0,1-.24.11c-.14,0-.22,0-.23,0S35,45.69,35,45.66Zm-.42,0,.25,0c.1,0,.07,0,.08.11s0,.09,0,.19-.12,0-.23,0-.14-.11-.13-.15S34.57,45.63,34.62,45.63ZM21,22.58a1.3,1.3,0,1,0-.44-1.78A1.29,1.29,0,0,0,21,22.58Zm.59-.43s.06,0,.22,0,.21-.09.24-.07,0,.26,0,.32a.33.33,0,0,1-.24.11c-.14,0-.22,0-.23,0S21.5,22.18,21.55,22.15Zm-.42,0,.25,0c.1,0,.07.05.08.12s0,.09,0,.18-.12,0-.23,0-.14-.12-.13-.15S21.08,22.12,21.13,22.12Zm-3.67,6.79a1.3,1.3,0,1,0,1.34-2.23,1.3,1.3,0,0,0-1.34,2.23Zm.59-.43s.06,0,.22,0,.21-.09.25-.07a.57.57,0,0,1,0,.32.33.33,0,0,1-.24.11c-.14,0-.22,0-.23,0S18,28.51,18.05,28.48Zm-.42,0,.25,0c.1,0,.08,0,.08.11s0,.09,0,.19-.12,0-.23,0-.14-.12-.13-.15S17.58,28.45,17.63,28.45ZM42.05,42.34a1.3,1.3,0,1,0-1.84,0A1.31,1.31,0,0,0,42.05,42.34Zm-.28-.67c0-.05,0-.05,0-.22s0-.22,0-.25.26,0,.3.06.07.13.06.26-.06.21-.1.21S41.78,41.72,41.77,41.67Zm-.13.39a2.13,2.13,0,0,1,.08-.23c0-.1.06-.06.13,0l.18,0c.06,0,0,.13-.07.22s-.15.11-.18.09S41.63,42.11,41.64,42.06ZM26.73,18a1.3,1.3,0,1,0,.94-1.58A1.3,1.3,0,0,0,26.73,18Zm.72.11c.05,0,0,.05.16.15s.21.08.22.12-.15.22-.21.24a.35.35,0,0,1-.25-.1c-.11-.07-.15-.15-.13-.18S27.4,18.1,27.45,18.12Zm-.28-.32a1.53,1.53,0,0,1,.16.19c.07.09,0,.09,0,.14l-.11.15s-.11-.06-.15-.18,0-.18,0-.2S27.14,17.77,27.17,17.8ZM20.24,42.12a1.3,1.3,0,1,0,0-1.84A1.31,1.31,0,0,0,20.24,42.12Zm.68-.29s0,0,.22.05.22,0,.25,0a.51.51,0,0,1-.06.31s-.13.07-.27.06-.2-.06-.2-.1S20.87,41.85,20.92,41.83Zm-.4-.12.24.08c.1,0,.06.06,0,.13s0,.09,0,.18-.13,0-.22-.08-.11-.14-.09-.17S20.47,41.7,20.52,41.71ZM17.06,36a1.3,1.3,0,1,0,0-1.84A1.3,1.3,0,0,0,17.06,36Zm.68-.28c.05,0,.05,0,.22,0s.22,0,.25,0,0,.26-.06.31a.35.35,0,0,1-.26,0c-.14,0-.21-.06-.21-.09S17.69,35.69,17.74,35.67Zm-.4-.13.24.08c.1,0,.06.06.05.13s0,.09,0,.19-.13,0-.22-.08-.11-.15-.1-.18S17.29,35.53,17.34,35.54Zm27.35-8.81a1.3,1.3,0,1,0,1.57.95A1.3,1.3,0,0,0,44.69,26.73Zm-.11.72c0,.06-.06,0-.15.17s-.09.21-.13.22-.21-.16-.23-.21,0-.15.09-.26.16-.14.19-.13S44.59,27.4,44.58,27.45Zm.32-.27a1.24,1.24,0,0,1-.2.16c-.08.07-.08,0-.14,0l-.14-.12s.06-.11.18-.15.18,0,.2,0S44.93,27.14,44.9,27.18Zm-3.75-6.77a1.3,1.3,0,1,0,1.58.95A1.3,1.3,0,0,0,41.15,20.41Zm-.1.72c0,.06-.06,0-.15.17s-.09.2-.13.22-.21-.16-.23-.21,0-.15.09-.26.15-.14.18-.13S41.06,21.08,41.05,21.13Zm.31-.27a1,1,0,0,1-.19.16c-.08.06-.08,0-.14,0l-.14-.12s.06-.11.18-.15.18,0,.2,0S41.4,20.82,41.36,20.86Z"/></g></g></svg>